<?xml version="1.0" encoding="UTF-8"?>
<!DOCTYPE svg PUBLIC "-//W3C//DTD SVG 1.1//EN" "http://www.w3.org/Graphics/SVG/1.1/DTD/svg11.dtd">
<!-- Creator: CorelDRAW 2020 (64-Bit) -->
<svg xmlns="http://www.w3.org/2000/svg" xml:space="preserve" width="4.23mm" height="4.23mm" version="1.1" style="shape-rendering:geometricPrecision; text-rendering:geometricPrecision; image-rendering:optimizeQuality; fill-rule:evenodd; clip-rule:evenodd"
viewBox="0 0 423 423"
 xmlns:xlink="http://www.w3.org/1999/xlink"
 xmlns:xodm="http://www.corel.com/coreldraw/odm/2003">
 <defs>
  <style type="text/css">
   <![CDATA[
    .fil0 {fill:#FEFEFE;fill-rule:nonzero}
   ]]>
  </style>
 </defs>
 <g id="Слой_x0020_1">
  <metadata id="CorelCorpID_0Corel-Layer"/>
  <path class="fil0" d="M211.5 -0.17c-116.42,0 -211.67,95.25 -211.67,211.67 0,116.42 95.25,211.67 211.67,211.67 116.42,0 211.67,-95.25 211.67,-211.67 0,-116.42 -95.25,-211.67 -211.67,-211.67zm-105.83 211.67c0,-58.21 47.63,-105.83 105.83,-105.83 58.2,0 105.83,47.63 105.83,105.83 0,58.21 -47.63,105.83 -105.83,105.83 -58.2,0 -105.83,-47.63 -105.83,-105.83zm227.54 47.63c7.94,-13.23 10.58,-31.75 10.58,-47.63 0,-15.88 -2.65,-34.4 -10.58,-47.63l39.69 -39.69c15.88,26.46 23.81,55.56 23.81,87.31 0,31.75 -7.94,60.85 -21.17,87.31l-42.33 -39.69 0 0.02zm-34.4 -211.67l-39.69 42.33c-13.23,-7.94 -31.75,-10.58 -47.63,-10.58 -15.88,0 -34.4,2.65 -47.63,10.58l-39.69 -42.33c26.46,-13.23 55.56,-21.17 87.31,-21.17 31.75,0 60.85,7.94 87.31,21.17l0.02 0zm-251.35 76.73l39.69 39.69c-5.29,13.23 -7.94,31.75 -7.94,47.63 0,15.88 2.65,34.4 10.58,47.63l-39.69 39.69c-15.88,-26.46 -23.81,-55.56 -23.81,-87.31 0,-31.75 7.94,-60.85 21.17,-87.31l0 -0.02zm76.73 251.35l39.69 -39.69c13.23,5.29 31.75,7.94 47.63,7.94 15.88,0 34.4,-2.65 47.63,-10.58l39.69 39.69c-26.46,15.88 -55.56,23.81 -87.31,23.81 -31.75,0 -60.85,-7.94 -87.31,-21.17l-0.02 0z"/>
 </g>
</svg>
