<?xml version="1.0" encoding="UTF-8"?>
<!DOCTYPE svg PUBLIC "-//W3C//DTD SVG 1.1//EN" "http://www.w3.org/Graphics/SVG/1.1/DTD/svg11.dtd">
<!-- Creator: CorelDRAW 2020 (64-Bit) -->
<svg xmlns="http://www.w3.org/2000/svg" xml:space="preserve" width="73.7mm" height="73.7mm" version="1.1" style="shape-rendering:geometricPrecision; text-rendering:geometricPrecision; image-rendering:optimizeQuality; fill-rule:evenodd; clip-rule:evenodd"
viewBox="0 0 7370 7370"
 xmlns:xlink="http://www.w3.org/1999/xlink"
 xmlns:xodm="http://www.corel.com/coreldraw/odm/2003">
 <defs>
  <style type="text/css">
   <![CDATA[
    .str0 {stroke:#FEFEFE;stroke-width:20;stroke-miterlimit:22.9256}
    .fil0 {fill:#FEFEFE}
   ]]>
  </style>
 </defs>
 <g id="Слой_x0020_1">
  <metadata id="CorelCorpID_0Corel-Layer"/>
  <path class="fil0 str0" d="M1527.06 6689.51c38.63,17.61 95.37,59.15 132.58,84.73 267.65,183.94 656.15,359.38 972.57,450.41 940.96,270.72 1856.74,174.62 2720.71,-250.28 182.11,-89.57 354.25,-203.27 507.33,-314.44 288.31,-209.35 505.08,-431.1 724.86,-706.23 35.67,-44.65 56.59,-74.16 87.25,-115.19 114.1,-152.7 216.53,-330.67 304.84,-507.99 413.72,-830.69 506.37,-1827.64 223.44,-2725.39 -65.59,-208.11 -142.8,-400.57 -233.33,-579.59 -44.63,-88.23 -94.51,-180.52 -146.83,-260.11l-161.27 -251.82 -169.09 -204.91c-76.83,-100.65 -235.32,-242.85 -315.36,-328.11 -126.73,-134.96 -428.14,-342.68 -583.4,-441.22 -939.11,-596.01 -2265.54,-702.74 -3297.53,-266.2 -937.21,396.46 -1661.95,1097.81 -2042.65,2056.32 -205.03,516.19 -305.27,1148 -235.64,1770.38 81.02,724.21 343.04,1305.31 730.66,1827.25 139.04,187.22 446.1,501.73 638.05,648.86 21.53,16.5 134.72,102.07 142.81,113.53zm1949.91 -6634.35c-787.76,42.51 -1413.22,307.53 -1998.26,732.84l-127.61 100.86c-880.99,726.27 -1365.28,1838.66 -1308.17,3003.82 25.17,513.43 178.93,1048.87 384.53,1438.78 111.92,212.22 216.96,384.3 348.51,557.43 77.09,101.47 227.49,282.69 320.36,365.33l172.62 166.04c92.64,92.56 342.08,270.23 454.11,341.82 1274.29,814.36 2954.15,748.47 4154.37,-169.59 105.6,-80.78 164.85,-140.03 249.3,-207.98 127.88,-102.91 325.63,-334.36 434.28,-471.29 64.59,-81.39 123.87,-167.22 189.29,-267.96 116.82,-179.86 219.04,-386.51 309.69,-604.92 188.08,-453.15 279.62,-1003.58 252.84,-1553.56 -39.48,-810.61 -342.31,-1510.91 -834.44,-2124 -115.93,-144.42 -251.91,-274.08 -391.51,-404.34 -275.29,-256.88 -709.2,-509.08 -1059.44,-650.63 -461.76,-186.62 -994.67,-282.64 -1550.47,-252.65zm2.86 221.77c-524.33,42.76 -952.01,155.72 -1351.86,364.1 -325.64,169.71 -730.11,455.39 -971.16,739.41 -18.95,22.33 -26.25,29.36 -48.63,52.79 -17.44,18.25 -29.85,36.02 -50.39,60.02 -553.14,646.57 -840.39,1518.61 -792.97,2399.52 40.17,746.44 336.39,1452.91 788.17,1989.94 36.58,43.48 67.1,73.82 99.45,112.22l215.35 216.37c334.48,292.43 622.71,488.11 1051.47,659.31 893.72,356.9 1968.62,309.27 2809.07,-131.2 230.17,-120.63 458.2,-265.62 642.62,-424.19 267.77,-230.22 512.12,-498.08 698.92,-799.82 113.28,-182.98 199.89,-351.57 288.86,-566.96 361.08,-874.04 303.76,-1978.65 -132.08,-2809.21 -101.78,-193.95 -210.52,-368.92 -330.67,-524.57 -93.38,-120.98 -116.84,-135.49 -195.2,-228.34l-102.49 -109.09c-355.74,-348.42 -684.51,-573.51 -1162.62,-768.28 -398.08,-162.16 -966.9,-271.88 -1455.84,-232.02zm3330.53 4361.19l3.61 98.07c19.12,-74.91 53.67,-164.57 80.9,-275.93 77.27,-316.03 105.68,-681.03 81.91,-1007.51 -50.03,-687.16 -311.96,-1338.33 -732.44,-1848.07 -36.56,-44.31 -52.45,-67.72 -84.25,-101.15 -301.66,-317.06 -481.6,-482.66 -932.12,-735.93 -661.44,-371.84 -1624.61,-495.74 -2454.53,-259.72 -792.05,225.26 -1362.13,694.2 -1751.35,1211.96 -421.64,560.9 -727.26,1385.39 -635,2297.8 19.4,191.85 60.38,444.26 120.26,616.34 20.57,59.13 188.98,98.69 251.5,111.51 536.17,109.99 779.32,-454.54 1490.37,-247.04 424.27,123.82 600.72,408.69 1129.43,170.63 191.7,-86.32 281.16,-163.24 533.43,-203.15 222.21,-35.17 447.38,13.35 623.17,92.9 168.3,76.15 326.98,181.8 538.98,198.65 484.16,38.46 779.17,-493.7 1479.62,-235.24 118.13,43.6 218.12,102.21 256.51,115.88zm-5037.85 678.9l-135.38 39.44c-29.26,19.37 -106.65,46.89 -144.94,67.5 -206.02,110.89 -264.42,126.91 -513.88,171.98 42.78,100.18 390.67,475.1 500.81,563.4 118,94.62 153.31,131.12 296.91,236.53 104.47,76.68 215.6,141.06 334.64,207.18 1020.51,566.82 2386.19,516.39 3362.78,-134.97 225.68,-150.53 428.42,-314.89 588.14,-487.46 83.81,-90.56 442.83,-503.83 460.59,-614.58 -66.72,-20.55 -123.99,-45.27 -200.39,-61.1 -103.62,-21.48 -153.15,-5.03 -245.27,-10.92 -14.94,15.2 -135.84,39.5 -163.73,46.84l-218.71 103.05c-250.1,135.47 -540.86,192.69 -825.59,120.04 -343.68,-87.7 -611.86,-367.87 -1025.55,-235.31 -174.31,55.87 -298.18,143.41 -467.18,202.09 -298.97,103.81 -542.11,80.85 -831.65,-38.47 -76.21,-31.4 -149.17,-76.04 -227.94,-110.81 -151.72,-66.99 -365.65,-129.22 -543.66,-64.43zm2151.48 -2932.13c-79.1,-122.85 -343.45,-559.02 -447.6,-593.68 -209.95,-69.84 -1476.25,286.19 -1722.36,355.78l-607.86 170.46c-64.51,18.39 -148.86,34.76 -208.52,54.69 -127.04,42.45 -108.41,267.65 -54.4,377.56 38.95,79.27 69.96,89.93 178.53,85.61 80.59,-3.22 161.77,-12.16 241.86,-20.53 246.8,-25.78 1764.9,-251.69 1868.41,-212.53 41.33,42.91 349.11,788.29 363.69,875.78 -16.36,99.97 -930.45,580.31 -1131.61,690.82 -28.87,15.86 -52.37,29.08 -82.25,44.85 -14.6,7.7 -28.2,14.24 -44.54,22.71l-41.21 30.48c253.91,67.32 420.41,221.87 691.51,258.55 503.33,68.12 769.11,-494.36 1517.42,-231.68 179.41,62.98 494.05,274.3 711.65,231.12l-399.33 -712.54c-221.32,-398.17 -592.05,-1052.63 -833.39,-1427.45zm1627.3 269.33c-473.66,71.21 -771.84,485.47 -708.64,929.84 58.88,414.06 437.6,766.03 927.18,699.47 415.74,-56.53 763.05,-436.05 702.2,-923.67 -51.14,-409.78 -443.62,-777.38 -920.74,-705.64zm-4911.58 2339.38c14.3,42.5 140.52,309.27 163.72,326.76 71.42,53.85 340.68,-29.72 416.6,-57.85 225.53,-83.54 389.48,-246.36 764.4,-236.1 323.38,8.86 496.32,159.98 748.9,250.92 649.23,233.73 861.57,-409.79 1596.81,-216.11 280.43,73.86 452.65,234.5 728.41,267.69 284.66,34.28 537.03,-155.31 760.2,-234.87 332.07,-118.4 526.92,-69.81 830.6,36.84l29.68 -48c9.42,-20.82 16.61,-36.68 25.99,-58.91 13.01,-30.83 36.68,-79.52 45.07,-114.93 -75.84,-55.33 -243.16,-122.21 -336.85,-152.88 -465.03,-152.25 -708.44,196.52 -1145.98,258.96 -324.1,46.25 -544.97,-65.43 -779.46,-179.55 -722.13,-351.46 -901.92,236.57 -1543.94,187.79 -348.56,-26.48 -489.91,-178.61 -726.48,-254.2 -609.41,-194.76 -770.85,286.86 -1367.85,255.37 -77.15,-4.07 -137.84,-23.13 -209.82,-30.93z"/>
 </g>
</svg>
