<?xml version="1.0" encoding="UTF-8"?>
<!DOCTYPE svg PUBLIC "-//W3C//DTD SVG 1.1//EN" "http://www.w3.org/Graphics/SVG/1.1/DTD/svg11.dtd">
<!-- Creator: CorelDRAW 2020 (64-Bit) -->
<svg xmlns="http://www.w3.org/2000/svg" xml:space="preserve" width="81.79mm" height="83.06mm" version="1.1" style="shape-rendering:geometricPrecision; text-rendering:geometricPrecision; image-rendering:optimizeQuality; fill-rule:evenodd; clip-rule:evenodd"
viewBox="0 0 8179 8306"
 xmlns:xlink="http://www.w3.org/1999/xlink"
 xmlns:xodm="http://www.corel.com/coreldraw/odm/2003">
 <defs>
  <style type="text/css">
   <![CDATA[
    .str0 {stroke:#FEFEFE;stroke-width:20;stroke-miterlimit:22.9256}
    .fil0 {fill:#FEFEFE}
   ]]>
  </style>
 </defs>
 <g id="Слой_x0020_1">
  <metadata id="CorelCorpID_0Corel-Layer"/>
  <g id="_2908997950960">
   <path class="fil0 str0" d="M1866.84 419.82l239.08 -7.66 -922.84 4068.43c148.72,-86.47 238.37,-182.95 394.31,-266.46 244.26,-130.82 782.22,-313.8 1046.39,-251.79 769.69,180.66 472.1,62.85 1196.73,456.72 157.94,85.84 284.7,116.81 440.91,241.56 83.6,66.76 110.09,101.94 210.09,148.14 550.42,254.35 963.44,483.31 1524.63,390.41 124.47,-20.61 470.67,-84.92 558.39,-119.94 186.02,-74.27 272.29,-137.89 435.38,-247.29 313.05,-210 273.98,-620.3 365.91,-984.07l517.68 -2223.13c112.33,-545.48 384.32,-1053.89 -60.85,-728.41 -208.03,152.1 -406.71,258.67 -666.43,304.31 -376.49,66.16 -355.79,94.4 -863.44,4.1 -309.92,-55.14 -409.66,-163.76 -705.55,-299.99 -284.54,-131 -1431.42,-834.45 -1796.51,-878.66l-617.48 0c-83.89,7.27 -156.09,18.89 -201.52,36.65 -7.3,2.85 -15.21,7.08 -22.47,9.97l-95.2 34.4c-383.26,124.96 -599.22,289.88 -691.62,296.29 -76.58,5.31 -172.18,-46.48 -285.59,16.42z"/>
   <path class="fil0 str0" d="M1183.08 4480.59l922.84 -4068.43 -239.08 7.66c-148.66,128.9 -423.89,1596.42 -494.57,1886.56 -81.4,334.13 -151.57,631 -224.51,964.27 -38.92,177.81 -77.82,339.33 -107.68,486.88l-907.24 3914.04c-59.4,256.97 -96.02,303.07 -96.02,532.18 346.9,0 289.52,70.96 469.04,-744.32 122.38,-555.82 681.94,-2861.71 677.22,-2978.84z"/>
  </g>
 </g>
</svg>
